# xmcd CD database file
#
# Track frame offsets:
#	150
#	16995
#	32603
#	51396
#	63407
#	77996
#	93519
#	109747
#	124983
#	138742
#	154411
#	171261
#	185917
#	202421
#	220046
#	231836
#	258911
#
# Disc length: 3994 seconds
#
# Revision: 0
# Processed by: cddbd v1.5.2PL0 Copyright (c) Steve Scherf et al.
# Submitted via: CDex 1.51
#
DISCID=050f9811
DTITLE=Various Artist - The Music Of Nashville - Season 1 - Bonus Tracks 1
DYEAR=2013
DGENRE=Country
TTITLE0=Sam Palladio - When The Right One Comes Along
TTITLE1=Clare Bowen and Sam Palladio - I Will Fall
TTITLE2=Clare Bowen and Sam Palladio - Change Your Mind
TTITLE3=Hayden Panettiere - Boys And Buses
TTITLE4=Charles Esten - Back Home
TTITLE5=Hayden Panettiere - Consider Me
TTITLE6=Hayden Panettiere - Yellin' From The Rooftop
TTITLE7=Clare Bowen and Sam Palladio - Loving You Is The Only Way To Fly
TTITLE8=Connie Britton - Buried Under (Alternate Version)
TTITLE9=Jonathan Jackson - Kiss
TTITLE10=Charles Esten - Papa Writes To Johnny
TTITLE11=Jonathan Jackson - The Morning Of The Rain
TTITLE12=Jonathan Jackson - Peace In The Valley
TTITLE13=Hayden Panettiere - For Your Glory
TTITLE14=Clare Bowen - Twist Of Barbwire
TTITLE15=Hayden Panettiere - Telescope (Live From Nashville)
TTITLE16=Hayden Panettiere - Telescope (Music Video)
EXTD=YEAR: 2013
EXTT0=
EXTT1=
EXTT2=
EXTT3=
EXTT4=
EXTT5=
EXTT6=
EXTT7=
EXTT8=
EXTT9=
EXTT10=
EXTT11=
EXTT12=
EXTT13=
EXTT14=
EXTT15=
EXTT16=
PLAYORDER=
